<svg xmlns="http://www.w3.org/2000/svg" viewBox="0 0 900 600">
  <defs>
    <linearGradient id="bg" x1="0" y1="0" x2="1" y2="1">
      <stop offset="0%" stop-color="#0f172a"/>
      <stop offset="100%" stop-color="#111827"/>
    </linearGradient>
    <linearGradient id="shape" x1="0" y1="0" x2="1" y2="1">
      <stop offset="0%" stop-color="#7c3aed"/>
      <stop offset="100%" stop-color="#38bdf8"/>
    </linearGradient>
  </defs>
  <rect width="900" height="600" rx="36" fill="url(#bg)"/>
  <rect x="84" y="84" width="732" height="432" rx="32" fill="none" stroke="#374151" stroke-width="8"/>
  <rect x="96" y="156" width="340" height="220" rx="30" fill="url(#shape)" opacity="0.92"/>
  <rect x="498" y="128" width="280" height="170" rx="28" fill="#111827"/>
  <rect x="498" y="318" width="280" height="128" rx="28" fill="#1f2937"/>
  <path d="M104 346c106-74 212-74 318 0 106 74 212 74 318 0" fill="none" stroke="#f8fafc" stroke-width="12" stroke-linecap="round" opacity="0.45"/>
  <circle cx="237" cy="240" r="44" fill="#f8fafc"/>
  <circle cx="566" cy="205" r="20" fill="#38bdf8"/>
  <circle cx="662" cy="244" r="14" fill="#7c3aed"/>
  <text x="126" y="250" fill="#ffffff" font-family="Inter, sans-serif" font-size="42" font-weight="700">Dominican</text>
  <text x="126" y="298" fill="#e2e8f0" font-family="Inter, sans-serif" font-size="32" font-weight="500">Casino Preview</text>
  <text x="126" y="358" fill="#cbd5e1" font-family="Inter, sans-serif" font-size="18">Flutter UI, Firestore persistence,</text>
  <text x="126" y="384" fill="#cbd5e1" font-family="Inter, sans-serif" font-size="18">responsive card-game interactions.</text>
</svg>
